<?xml version="1.0" encoding="UTF-8" standalone="no"?>
<svg version="1.1"
  xmlns="http://www.w3.org/2000/svg"
  xmlns:xlink="http://www.w3.org/1999/xlink"
  width="489" height="52">

  <title>Bullet Graph</title>
  <desc>Created with VIM, released under CC0 "No Rights reserved" license</desc>

  <g>
     <path d="M 149,0 l 330,0 l 0,25 l -330,0 z" fill="#DDD"/>
     <path d="M 149,0 l 275,0 l 0,25 l -275,0 z" fill="#BBB"/>
     <path d="M 149,0 l 220,0 l 0,25 l -220,0 z" fill="#999"/>
  </g>
  <g 
     fill="rgba(0,0,0,1)">
     <path d="M 149,8 l 300,0 l 0,8 l -300,0 z"/>
     <path d="M 439,3 l 3,0 l 0,19 l -3,0 z"/>
  </g>
  <g 
     stroke="black"
     stroke-width="1.5"
     fill="none">
     <line x1="149" y1="26" x2="149" y2="32"/>
     <line x1="204" y1="26" x2="204" y2="32"/>
     <line x1="259" y1="26" x2="259" y2="32"/>
     <line x1="314" y1="26" x2="314" y2="32"/>
     <line x1="369" y1="26" x2="369" y2="32"/>
     <line x1="424" y1="26" x2="424" y2="32"/>
     <line x1="479" y1="26" x2="479" y2="32"/>
  </g>
  <text
     font-family="sans"
     text-anchor="end"
     stroke="none"
     fill="black">
    <tspan x="145" y="18" font-size="14px">Revenue 2005 YTD</tspan>
    <tspan x="135" y="38" font-size="10px">(U.S. $ in thousands)</tspan>
  </text>
  <text
     font-family="sans"
     font-size="12px"
     text-anchor="middle"
     stroke="none"
     fill="black">
    <tspan x="149" y="48">0</tspan>
    <tspan x="204" y="48">50</tspan>
    <tspan x="259" y="48">100</tspan>
    <tspan x="314" y="48">150</tspan>
    <tspan x="369" y="48">200</tspan>
    <tspan x="424" y="48">250</tspan>
    <tspan x="479" y="48">300</tspan>
  </text>

</svg>

