<?xml version="1.0" encoding="UTF-8" standalone="no"?>
<svg
   xmlns:dc="http://purl.org/dc/elements/1.1/"
   xmlns:cc="http://creativecommons.org/ns#"
   xmlns:rdf="http://www.w3.org/1999/02/22-rdf-syntax-ns#"
   xmlns:svg="http://www.w3.org/2000/svg"
   xmlns="http://www.w3.org/2000/svg"
   xmlns:sodipodi="http://sodipodi.sourceforge.net/DTD/sodipodi-0.dtd"
   xmlns:inkscape="http://www.inkscape.org/namespaces/inkscape"
   width="181.66103mm"
   height="49.739777mm"
   viewBox="0 0 181.66103 49.739777"
   version="1.1"
   id="svg1279"
   inkscape:version="1.0.2 (e86c870879, 2021-01-15)"
   sodipodi:docname="covid_total_profit_bar.svg">
  <defs
     id="defs1273">
    <clipPath
       id="cpNDguMTd8NzUwLjUyfDY4LjEzfDUuNDg=-5">
      <rect
         x="48.169998"
         y="5.48"
         width="702.34998"
         height="62.650002"
         id="rect50238" />
    </clipPath>
    <clipPath
       id="clipPath1203">
      <rect
         x="48.169998"
         y="5.48"
         width="702.34998"
         height="62.650002"
         id="rect1201" />
    </clipPath>
    <clipPath
       id="clipPath1207">
      <rect
         x="48.169998"
         y="5.48"
         width="702.34998"
         height="62.650002"
         id="rect1205" />
    </clipPath>
    <clipPath
       id="clipPath1211">
      <rect
         x="48.169998"
         y="5.48"
         width="702.34998"
         height="62.650002"
         id="rect1209" />
    </clipPath>
    <clipPath
       id="clipPath1215">
      <rect
         x="48.169998"
         y="5.48"
         width="702.34998"
         height="62.650002"
         id="rect1213" />
    </clipPath>
    <clipPath
       id="clipPath1219">
      <rect
         x="48.169998"
         y="5.48"
         width="702.34998"
         height="62.650002"
         id="rect1217" />
    </clipPath>
    <clipPath
       id="clipPath1223">
      <rect
         x="48.169998"
         y="5.48"
         width="702.34998"
         height="62.650002"
         id="rect1221" />
    </clipPath>
    <clipPath
       id="cpMC4wMHw3NTYuMDB8OTAuMDB8MC4wMA==-9">
      <rect
         x="0"
         y="0"
         width="756"
         height="90"
         id="rect50259" />
    </clipPath>
    <clipPath
       id="clipPath1229">
      <rect
         x="0"
         y="0"
         width="756"
         height="90"
         id="rect1227" />
    </clipPath>
    <clipPath
       id="clipPath1233">
      <rect
         x="0"
         y="0"
         width="756"
         height="90"
         id="rect1231" />
    </clipPath>
    <clipPath
       id="clipPath1237">
      <rect
         x="0"
         y="0"
         width="756"
         height="90"
         id="rect1235" />
    </clipPath>
    <clipPath
       id="cpMC4wMHw3NTYuMDB8NDY4LjAwfDAuMDA=">
      <rect
         x="0"
         y="0"
         width="756"
         height="468"
         id="rect111" />
    </clipPath>
    <clipPath
       id="clipPath768">
      <rect
         x="0"
         y="0"
         width="756"
         height="468"
         id="rect766" />
    </clipPath>
    <clipPath
       id="clipPath772">
      <rect
         x="0"
         y="0"
         width="756"
         height="468"
         id="rect770" />
    </clipPath>
    <clipPath
       id="clipPath776">
      <rect
         x="0"
         y="0"
         width="756"
         height="468"
         id="rect774" />
    </clipPath>
    <clipPath
       id="clipPath780">
      <rect
         x="0"
         y="0"
         width="756"
         height="468"
         id="rect778" />
    </clipPath>
    <clipPath
       id="clipPath784">
      <rect
         x="0"
         y="0"
         width="756"
         height="468"
         id="rect782" />
    </clipPath>
    <clipPath
       id="clipPath788">
      <rect
         x="0"
         y="0"
         width="756"
         height="468"
         id="rect786" />
    </clipPath>
    <clipPath
       id="clipPath792">
      <rect
         x="0"
         y="0"
         width="756"
         height="468"
         id="rect790" />
    </clipPath>
    <clipPath
       id="clipPath796">
      <rect
         x="0"
         y="0"
         width="756"
         height="468"
         id="rect794" />
    </clipPath>
    <clipPath
       id="clipPath800">
      <rect
         x="0"
         y="0"
         width="756"
         height="468"
         id="rect798" />
    </clipPath>
    <clipPath
       id="clipPath804">
      <rect
         x="0"
         y="0"
         width="756"
         height="468"
         id="rect802" />
    </clipPath>
    <clipPath
       id="clipPath808">
      <rect
         x="0"
         y="0"
         width="756"
         height="468"
         id="rect806" />
    </clipPath>
  </defs>
  <sodipodi:namedview
     id="base"
     pagecolor="#ffffff"
     bordercolor="#666666"
     borderopacity="1.0"
     inkscape:pageopacity="0.0"
     inkscape:pageshadow="2"
     inkscape:zoom="1.979899"
     inkscape:cx="475.04581"
     inkscape:cy="62.636579"
     inkscape:document-units="mm"
     inkscape:current-layer="layer1"
     inkscape:document-rotation="0"
     showgrid="false"
     fit-margin-top="0.5"
     fit-margin-left="0"
     fit-margin-right="0"
     fit-margin-bottom="5"
     inkscape:window-width="1920"
     inkscape:window-height="1017"
     inkscape:window-x="-8"
     inkscape:window-y="-8"
     inkscape:window-maximized="1" />
  <metadata
     id="metadata1276">
    <rdf:RDF>
      <cc:Work
         rdf:about="">
        <dc:format>image/svg+xml</dc:format>
        <dc:type
           rdf:resource="http://purl.org/dc/dcmitype/StillImage" />
        <dc:title></dc:title>
      </cc:Work>
    </rdf:RDF>
  </metadata>
  <g
     inkscape:label="Layer 1"
     inkscape:groupmode="layer"
     id="layer1"
     transform="translate(-14.246867,-131.97237)">
    <g
       id="g1489">
      <polyline
         points="80.10,68.13 80.10,5.48 "
         style="stroke:#ebebeb;stroke-width:1.07;stroke-linecap:butt"
         clip-path="url(#cpNDguMTd8NzUwLjUyfDY4LjEzfDUuNDg=-5)"
         id="polyline50243"
         transform="matrix(0.26458333,0,0,0.26458333,-3.5339808,154.64127)" />
      <polyline
         points="213.12,68.13 213.12,5.48 "
         style="stroke:#ebebeb;stroke-width:1.07;stroke-linecap:butt"
         clip-path="url(#cpNDguMTd8NzUwLjUyfDY4LjEzfDUuNDg=-5)"
         id="polyline50245"
         transform="matrix(0.26458333,0,0,0.26458333,-3.5339808,154.64127)" />
      <polyline
         points="346.14,68.13 346.14,5.48 "
         style="stroke:#ebebeb;stroke-width:1.07;stroke-linecap:butt"
         clip-path="url(#cpNDguMTd8NzUwLjUyfDY4LjEzfDUuNDg=-5)"
         id="polyline50247"
         transform="matrix(0.26458333,0,0,0.26458333,-3.5339808,154.64127)" />
      <polyline
         points="479.16,68.13 479.16,5.48 "
         style="stroke:#ebebeb;stroke-width:1.07;stroke-linecap:butt"
         clip-path="url(#cpNDguMTd8NzUwLjUyfDY4LjEzfDUuNDg=-5)"
         id="polyline50249"
         transform="matrix(0.26458333,0,0,0.26458333,-3.5339808,154.64127)" />
      <polyline
         points="612.18,68.13 612.18,5.48 "
         style="stroke:#ebebeb;stroke-width:1.07;stroke-linecap:butt"
         clip-path="url(#cpNDguMTd8NzUwLjUyfDY4LjEzfDUuNDg=-5)"
         id="polyline50251"
         transform="matrix(0.26458333,0,0,0.26458333,-3.5339808,154.64127)" />
      <rect
         x="80.099998"
         y="13.31"
         width="638.5"
         height="46.990002"
         style="fill:#d4ae0b;stroke:none;stroke-width:1.07;stroke-linecap:square;stroke-linejoin:miter"
         clip-path="url(#cpNDguMTd8NzUwLjUyfDY4LjEzfDUuNDg=-5)"
         id="rect50255"
         transform="matrix(0.26458333,0,0,0.26458333,-3.5339808,154.64127)" />
      <rect
         x="80.099998"
         y="23.75"
         width="429.63"
         height="26.1"
         style="fill:#8f1f3f;stroke:none;stroke-width:1.07;stroke-linecap:square;stroke-linejoin:miter"
         clip-path="url(#cpNDguMTd8NzUwLjUyfDY4LjEzfDUuNDg=-5)"
         id="rect50257"
         transform="matrix(0.26458333,0,0,0.26458333,-3.5339808,154.64127)" />
      <g
         clip-path="url(#cpMC4wMHw3NTYuMDB8OTAuMDB8MC4wMA==-9)"
         id="g50274"
         transform="matrix(0.26458333,0,0,0.26458333,-3.5339808,154.64127)">
        <text
           x="195.8"
           y="82.330002"
           style="font-size:12.5px;font-family:'Libre Franklin'"
           textLength="34.639999"
           lengthAdjust="spacingAndGlyphs"
           id="text50272">$25 B</text>
      </g>
      <g
         clip-path="url(#cpMC4wMHw3NTYuMDB8OTAuMDB8MC4wMA==-9)"
         id="g50278"
         transform="matrix(0.26458333,0,0,0.26458333,-3.5339808,154.64127)">
        <text
           x="328.26001"
           y="82.330002"
           style="font-size:12.5px;font-family:'Libre Franklin'"
           textLength="35.75"
           lengthAdjust="spacingAndGlyphs"
           id="text50276">$50 B</text>
      </g>
      <g
         clip-path="url(#cpMC4wMHw3NTYuMDB8OTAuMDB8MC4wMA==-9)"
         id="g50282"
         transform="matrix(0.26458333,0,0,0.26458333,-3.5339808,154.64127)">
        <text
           x="461.84"
           y="82.330002"
           style="font-size:12.5px;font-family:'Libre Franklin'"
           textLength="34.639999"
           lengthAdjust="spacingAndGlyphs"
           id="text50280">$75 B</text>
      </g>
      <g
         clip-path="url(#cpMC4wMHw3NTYuMDB8OTAuMDB8MC4wMA==-9)"
         id="g50286"
         transform="matrix(0.26458333,0,0,0.26458333,-3.5339808,154.64127)">
        <text
           x="591.19"
           y="82.330002"
           style="font-size:12.5px;font-family:'Libre Franklin'"
           textLength="41.990002"
           lengthAdjust="spacingAndGlyphs"
           id="text50284">$100 B</text>
      </g>
      <g
         id="g50440"
         transform="translate(-16.687389,-102.53131)">
        <text
           xml:space="preserve"
           style="font-style:normal;font-variant:normal;font-weight:bold;font-stretch:normal;font-size:4.93889px;line-height:1.25;font-family:Montserrat;-inkscape-font-specification:'Montserrat Bold';text-align:start;text-anchor:start;fill:#000000;fill-opacity:1;stroke-width:0.264583"
           x="34.16547"
           y="247.35994"
           id="text48496"><tspan
             id="tspan48494"
             x="34.16547"
             y="247.35994"
             style="font-style:normal;font-variant:normal;font-weight:bold;font-stretch:normal;font-size:4.93889px;font-family:Montserrat;-inkscape-font-specification:'Montserrat Bold';text-align:start;text-anchor:start;fill:#000000;fill-opacity:1;stroke-width:0.264583"
             sodipodi:role="line"><tspan
   style="font-style:normal;font-variant:normal;font-weight:normal;font-stretch:normal;font-family:Montserrat;-inkscape-font-specification:Montserrat"
   id="tspan50364">Corporations received more than</tspan> <tspan
   style="font-style:normal;font-variant:normal;font-weight:bold;font-stretch:normal;font-family:Montserrat;-inkscape-font-specification:'Montserrat Bold';fill:#8f1f3f;fill-opacity:1"
   id="tspan50358">$82 billion dollars</tspan> <tspan
   style="font-style:normal;font-variant:normal;font-weight:normal;font-stretch:normal;font-family:Montserrat;-inkscape-font-specification:Montserrat"
   id="tspan50366">in</tspan> <tspan
   style="font-style:normal;font-variant:normal;font-weight:bold;font-stretch:normal;font-family:Montserrat;-inkscape-font-specification:'Montserrat Bold';fill:#8f1f3f;fill-opacity:1"
   id="tspan50360">wage subsidies</tspan></tspan></text>
        <text
           xml:space="preserve"
           style="font-style:normal;font-variant:normal;font-weight:bold;font-stretch:normal;font-size:4.93889px;line-height:1.25;font-family:Montserrat;-inkscape-font-specification:'Montserrat Bold';text-align:start;text-anchor:start;fill:#000000;fill-opacity:1;stroke-width:0.264583"
           x="34.16547"
           y="253.99496"
           id="text50390"><tspan
             id="tspan50388"
             x="34.16547"
             y="253.99496"
             style="font-style:normal;font-variant:normal;font-weight:normal;font-stretch:normal;font-size:4.93889px;font-family:Montserrat;-inkscape-font-specification:Montserrat;text-align:start;text-anchor:start;fill:#000000;fill-opacity:1;stroke-width:0.264583"
             sodipodi:role="line">while also raking in over <tspan
   style="font-style:normal;font-variant:normal;font-weight:bold;font-stretch:normal;font-family:Montserrat;-inkscape-font-specification:'Montserrat Bold';fill:#d4ae0b;fill-opacity:1"
   id="tspan50392">$120 billion dollars</tspan> in <tspan
   style="font-style:normal;font-variant:normal;font-weight:bold;font-stretch:normal;font-family:Montserrat;-inkscape-font-specification:'Montserrat Bold';fill:#d4ae0b;fill-opacity:1"
   id="tspan50394">after-tax profit</tspan></tspan></text>
      </g>
      <text
         xml:space="preserve"
         style="font-style:normal;font-variant:normal;font-weight:bold;font-stretch:normal;font-size:4.9389px;line-height:1.25;font-family:Montserrat;-inkscape-font-specification:'Montserrat Bold';text-align:start;text-anchor:start;stroke-width:0.264583"
         x="17.324974"
         y="138.04546"
         id="text50551"><tspan
           sodipodi:role="line"
           id="tspan50549"
           x="17.324974"
           y="138.04546"
           style="font-style:normal;font-variant:normal;font-weight:bold;font-stretch:normal;font-family:Montserrat;-inkscape-font-specification:'Montserrat Bold';text-align:start;text-anchor:start;stroke-width:0.264583">Overall, in 2020...</tspan></text>
      <text
         xml:space="preserve"
         style="font-style:normal;font-variant:normal;font-weight:600;font-stretch:normal;font-size:5.64444px;line-height:1.25;font-family:'Libre Franklin';-inkscape-font-specification:'Libre Franklin Semi-Bold';text-align:start;text-anchor:start;fill:#8f1f3f;fill-opacity:1;stroke-width:0.264583"
         x="132.73331"
         y="166.47485"
         id="text50729"><tspan
           sodipodi:role="line"
           id="tspan50727"
           x="132.73331"
           y="166.47485"
           style="font-style:normal;font-variant:normal;font-weight:600;font-stretch:normal;font-size:5.64444px;font-family:'Libre Franklin';-inkscape-font-specification:'Libre Franklin Semi-Bold';text-align:start;text-anchor:start;fill:#8f1f3f;fill-opacity:1;stroke-width:0.264583">67%</tspan></text>
      <rect
         style="opacity:0.3;fill:#cc4422;fill-opacity:0.15;stroke:#000000;stroke-width:0.212511;stroke-linecap:square;stroke-linejoin:round;stroke-miterlimit:10;stroke-dasharray:0.425023, 0.212511;stroke-opacity:0;paint-order:markers stroke fill"
         id="rect51040"
         width="181.44852"
         height="21.628801"
         x="14.353123"
         y="132.57863" />
    </g>
    <g
       id="g163"
       transform="translate(-0.52916667,4.2333335)">
      <path
         d="m 687.34,454.23 v 0 h 0.02 0.01 0.03 0.02 0.03 0.03 0.03 0.04 0.04 0.04 v 0 h 0.04 0.05 0.05 0.04 0.05 0.05 0.05 0.05 0.05 l 0.05,0.01 v 0 h 0.05 0.05 0.05 0.05 0.05 0.05 0.04 0.05 0.05 0.04 v 0 h 0.04 0.04 0.04 0.04 0.03 0.03 0.02 0.03 0.02 0.02 v 0 h 0.27 l 0.26,0.02 0.26,0.02 0.24,0.04 0.23,0.04 0.21,0.04 0.21,0.06 0.2,0.06 0.19,0.08 0.17,0.08 v 0 l 0.17,0.08 0.16,0.1 0.14,0.1 0.14,0.11 0.13,0.12 0.12,0.13 0.11,0.13 0.11,0.14 0.09,0.15 0.08,0.16 v 0 l 0.08,0.16 0.06,0.17 0.06,0.18 0.06,0.19 0.04,0.19 0.04,0.2 0.02,0.21 0.02,0.22 0.02,0.22 v 0.24 0 0.24 l -0.02,0.24 -0.02,0.23 -0.03,0.22 -0.04,0.21 -0.04,0.21 -0.06,0.19 -0.06,0.19 -0.08,0.18 -0.08,0.18 v 0 l -0.09,0.16 -0.1,0.15 -0.11,0.15 -0.12,0.14 -0.12,0.13 -0.14,0.12 -0.15,0.12 -0.15,0.1 -0.17,0.1 -0.17,0.09 v 0 l -0.18,0.08 -0.19,0.07 -0.2,0.06 -0.22,0.05 -0.21,0.05 -0.23,0.04 -0.24,0.03 -0.25,0.02 -0.25,0.01 -0.27,0.01 h -1.47 v 0 l -0.03,-0.01 h -0.02 l -0.02,-0.01 -0.02,-0.01 -0.01,-0.01 -0.02,-0.02 -0.01,-0.02 v -0.03 l -0.01,-0.02 v -0.03 -7.12 0 -0.02 -0.01 -0.01 l 0.01,-0.01 v -0.01 -0.01 l 0.01,-0.01 v -0.01 -0.01 h 0.01 v 0 l 0.01,-0.01 0.01,-0.01 h 0.01 l 0.01,-0.01 h 0.01 l 0.01,-0.01 h 0.02 0.01 0.01 z m 0.91,0.73 v 0 h -0.02 -0.02 l -0.01,0.01 -0.01,0.01 -0.01,0.01 -0.01,0.02 -0.01,0.01 -0.01,0.03 v 0.02 0.03 5.72 0 0.02 l 0.01,0.02 v 0.01 l 0.01,0.02 0.01,0.01 0.01,0.01 0.02,0.01 h 0.02 0.02 l 0.02,0.01 h 0.38 v 0 l 0.22,-0.01 0.21,-0.01 0.2,-0.01 0.19,-0.02 0.19,-0.03 0.17,-0.03 0.17,-0.04 0.16,-0.04 0.15,-0.05 0.14,-0.05 v 0 l 0.13,-0.07 0.13,-0.07 0.12,-0.08 0.11,-0.08 0.11,-0.09 0.1,-0.1 0.09,-0.11 0.08,-0.11 0.07,-0.13 0.07,-0.12 v 0 l 0.06,-0.14 0.06,-0.15 0.05,-0.15 0.04,-0.16 0.04,-0.17 0.03,-0.18 0.02,-0.19 0.02,-0.2 0.01,-0.2 v -0.21 0 -0.23 l -0.01,-0.21 -0.02,-0.2 -0.02,-0.2 -0.03,-0.18 -0.04,-0.17 -0.05,-0.17 -0.05,-0.15 -0.05,-0.14 -0.07,-0.13 v 0 l -0.07,-0.13 -0.08,-0.12 -0.08,-0.11 -0.09,-0.1 -0.1,-0.1 -0.11,-0.09 -0.11,-0.08 -0.12,-0.07 -0.13,-0.07 -0.13,-0.05 v 0 l -0.14,-0.06 -0.15,-0.04 -0.15,-0.04 -0.16,-0.04 -0.17,-0.03 -0.18,-0.02 -0.18,-0.02 -0.19,-0.01 -0.2,-0.01 h -0.21 z"
         style="fill:#000000;fill-rule:evenodd;stroke:none;stroke-width:0.75;stroke-linecap:round;stroke-linejoin:round;stroke-miterlimit:10"
         clip-path="url(#cpMC4wMHw3NTYuMDB8NDY4LjAwfDAuMDA=)"
         id="path726"
         transform="matrix(0.26458333,0,0,0.26458333,-3.6881005,54.087353)" />
      <path
         d="m 697.26,461.01 v 0 l -0.07,0.07 -0.08,0.06 -0.08,0.07 -0.08,0.06 -0.08,0.05 -0.08,0.06 -0.08,0.05 -0.09,0.04 -0.08,0.05 -0.09,0.04 v 0 l -0.09,0.03 -0.09,0.03 -0.09,0.03 -0.09,0.03 -0.1,0.02 -0.1,0.02 -0.1,0.01 -0.1,0.01 h -0.1 l -0.11,0.01 v 0 l -0.15,-0.01 -0.15,-0.01 -0.14,-0.02 -0.13,-0.03 -0.13,-0.03 -0.12,-0.05 -0.11,-0.05 -0.11,-0.06 -0.1,-0.07 -0.09,-0.07 v 0 l -0.08,-0.09 -0.08,-0.08 -0.06,-0.1 -0.06,-0.09 -0.05,-0.11 -0.04,-0.1 -0.03,-0.12 -0.02,-0.11 -0.02,-0.13 v -0.12 0 -0.11 l 0.01,-0.1 0.02,-0.1 0.02,-0.09 0.03,-0.1 0.03,-0.09 0.04,-0.08 0.04,-0.09 0.05,-0.08 0.06,-0.07 v 0 l 0.06,-0.08 0.07,-0.07 0.08,-0.07 0.08,-0.07 0.08,-0.06 0.09,-0.06 0.1,-0.06 0.11,-0.05 0.11,-0.05 0.11,-0.04 v 0 l 0.12,-0.05 0.13,-0.04 0.13,-0.04 0.14,-0.03 0.14,-0.03 0.15,-0.03 0.15,-0.02 0.16,-0.02 0.16,-0.01 0.17,-0.01 0.78,-0.06 v 0 l 0.01,-0.01 h 0.01 0.02 l 0.01,-0.01 h 0.01 0.01 l 0.01,-0.01 h 0.01 l 0.01,-0.01 h 0.01 v 0 l 0.01,-0.01 0.01,-0.01 0.01,-0.01 v -0.01 l 0.01,-0.01 v -0.01 l 0.01,-0.01 v -0.01 -0.02 -0.01 -0.27 0 -0.11 l -0.01,-0.1 -0.02,-0.1 -0.02,-0.09 -0.03,-0.09 -0.04,-0.08 -0.05,-0.08 -0.05,-0.07 -0.05,-0.07 -0.07,-0.06 v 0 l -0.07,-0.07 -0.07,-0.05 -0.08,-0.05 -0.08,-0.04 -0.09,-0.03 -0.09,-0.03 -0.1,-0.03 -0.1,-0.01 -0.11,-0.01 h -0.11 v 0 h -0.09 -0.08 l -0.09,0.01 -0.08,0.02 -0.08,0.02 -0.08,0.02 -0.08,0.02 -0.07,0.03 -0.08,0.04 -0.07,0.04 v 0 l -0.07,0.04 -0.07,0.04 -0.06,0.05 -0.07,0.06 -0.06,0.06 -0.06,0.06 -0.07,0.06 -0.05,0.07 -0.06,0.08 -0.06,0.08 v 0 l -0.01,0.01 h -0.01 v 0.01 l -0.01,0.01 -0.01,0.01 v 0 l -0.01,0.01 -0.01,0.01 v 0 l -0.01,0.01 v 0 0 h -0.01 -0.01 v 0 h -0.01 -0.01 l -0.01,-0.01 h -0.01 -0.01 -0.01 l -0.54,-0.18 v 0 l -0.01,-0.01 v 0 l -0.01,-0.01 v 0 L 694,457.5 v 0 l -0.01,-0.01 v 0 l -0.01,-0.01 v 0 0 -0.01 -0.01 -0.01 -0.01 -0.01 l 0.01,-0.01 v -0.01 L 694,457.4 v -0.02 l 0.01,-0.01 v 0 l 0.06,-0.11 0.07,-0.09 0.07,-0.1 0.08,-0.09 0.08,-0.08 0.09,-0.08 0.09,-0.07 0.09,-0.08 0.1,-0.06 0.11,-0.06 v 0 l 0.11,-0.06 0.12,-0.05 0.12,-0.05 0.13,-0.04 0.13,-0.03 0.14,-0.03 0.14,-0.02 0.14,-0.01 0.15,-0.01 h 0.16 v 0 h 0.13 0.13 l 0.12,0.01 0.12,0.02 0.11,0.02 0.11,0.02 0.11,0.03 0.1,0.03 0.09,0.04 0.09,0.04 v 0 l 0.09,0.04 0.08,0.04 0.08,0.05 0.07,0.06 0.07,0.05 0.07,0.06 0.06,0.07 0.05,0.07 0.05,0.07 0.05,0.08 v 0 l 0.04,0.07 0.04,0.08 0.04,0.09 0.03,0.08 0.02,0.09 0.02,0.1 0.02,0.09 0.01,0.1 0.01,0.1 v 0.11 3.54 0 0.01 0.02 0.01 0.02 l -0.01,0.01 v 0.01 0.01 l -0.01,0.01 v 0.01 l -0.01,0.01 v 0 h -0.01 v 0.01 h -0.01 -0.01 l -0.01,0.01 h -0.01 -0.01 -0.01 l -0.02,0.01 h -0.01 -0.51 v 0 h -0.01 l -0.02,-0.01 h -0.01 -0.01 -0.01 l -0.01,-0.01 h -0.01 l -0.01,-0.01 v -0.01 h -0.01 v 0 l -0.01,-0.01 v -0.02 l -0.01,-0.01 v -0.01 -0.01 l -0.01,-0.01 v -0.01 -0.02 l -0.01,-0.01 v -0.01 l -0.01,-0.46 v 0 l -0.01,-0.03 -0.01,-0.02 -0.01,-0.02 h -0.01 l -0.01,-0.01 h -0.02 l -0.02,0.01 -0.02,0.01 -0.02,0.01 z m 0.13,-1.9 v 0 -0.04 l -0.01,-0.03 v -0.02 l -0.01,-0.02 -0.01,-0.02 -0.02,-0.01 -0.02,-0.01 -0.02,-0.01 h -0.02 -0.03 l -0.66,0.06 v 0 h -0.09 l -0.09,0.01 h -0.09 l -0.08,0.01 -0.08,0.02 -0.09,0.01 -0.07,0.01 -0.08,0.02 -0.08,0.02 -0.07,0.02 v 0 l -0.07,0.01 -0.07,0.02 -0.07,0.02 -0.06,0.03 -0.06,0.02 -0.06,0.03 -0.06,0.02 -0.06,0.03 -0.05,0.03 -0.05,0.03 v 0 l -0.05,0.03 -0.04,0.03 -0.05,0.03 -0.04,0.04 -0.04,0.03 -0.04,0.04 -0.03,0.03 -0.03,0.04 -0.03,0.04 -0.03,0.05 v 0 l -0.02,0.04 -0.03,0.04 -0.02,0.04 -0.01,0.05 -0.02,0.04 -0.01,0.05 -0.01,0.05 v 0.05 l -0.01,0.05 v 0.06 0 0.08 l 0.01,0.08 0.02,0.08 0.02,0.08 0.03,0.07 0.03,0.07 0.04,0.06 0.04,0.06 0.05,0.05 0.06,0.06 v 0 l 0.06,0.04 0.07,0.04 0.08,0.04 0.07,0.03 0.08,0.03 0.09,0.02 0.09,0.01 0.09,0.02 h 0.1 l 0.1,0.01 v 0 l 0.06,-0.01 h 0.07 0.06 l 0.06,-0.01 0.06,-0.01 0.06,-0.01 0.06,-0.02 0.06,-0.01 0.06,-0.02 0.06,-0.02 v 0 l 0.06,-0.03 0.06,-0.02 0.05,-0.03 0.06,-0.03 0.05,-0.03 0.05,-0.03 0.05,-0.03 0.05,-0.03 0.05,-0.04 0.04,-0.03 v 0 l 0.05,-0.04 0.04,-0.04 0.04,-0.04 0.04,-0.04 0.03,-0.04 0.04,-0.04 0.03,-0.04 0.03,-0.03 0.03,-0.04 0.02,-0.04 v 0 l 0.03,-0.04 0.02,-0.04 0.02,-0.04 0.01,-0.04 0.02,-0.04 0.01,-0.04 0.01,-0.04 0.01,-0.04 v -0.04 -0.03 z"
         style="fill:#000000;fill-rule:evenodd;stroke:none;stroke-width:0.75;stroke-linecap:round;stroke-linejoin:round;stroke-miterlimit:10"
         clip-path="url(#cpMC4wMHw3NTYuMDB8NDY4LjAwfDAuMDA=)"
         id="path728"
         transform="matrix(0.26458333,0,0,0.26458333,-3.6881005,54.087353)" />
      <path
         d="m 701.09,456.98 v 0 h -0.01 -0.02 -0.01 l -0.01,0.01 -0.01,0.01 h -0.01 v 0.01 l -0.01,0.02 v 0.01 0.02 3.17 0 0.09 l 0.01,0.08 v 0.08 l 0.02,0.07 0.01,0.07 0.02,0.06 0.02,0.05 0.02,0.05 0.03,0.04 0.03,0.04 v 0 l 0.03,0.03 0.04,0.02 0.04,0.03 0.04,0.02 0.05,0.02 0.05,0.01 0.05,0.01 0.06,0.01 h 0.06 l 0.06,0.01 h 0.69 v 0 h 0.01 0.01 0.01 0.01 0.01 v 0.01 h 0.01 0.01 v 0.01 l 0.01,0.01 v 0 h 0.01 v 0.01 h 0.01 v 0.01 0.01 h 0.01 v 0.01 0.01 0.01 0.02 l -0.01,0.34 v 0 0.01 0.02 l -0.01,0.02 -0.01,0.01 -0.01,0.02 -0.01,0.01 -0.02,0.01 -0.02,0.01 -0.02,0.01 -0.02,0.01 v 0 h -0.02 -0.02 l -0.03,0.01 h -0.02 -0.03 l -0.03,0.01 h -0.03 -0.04 -0.03 l -0.04,0.01 v 0 h -0.04 -0.03 -0.04 -0.03 l -0.04,0.01 h -0.04 -0.03 -0.04 -0.03 l -0.04,0.01 v 0 h -0.03 -0.04 -0.03 -0.03 -0.03 -0.03 -0.02 -0.03 -0.02 -0.03 v 0 l -0.12,-0.01 -0.12,-0.01 -0.11,-0.01 -0.1,-0.02 -0.09,-0.03 -0.09,-0.03 -0.08,-0.04 -0.08,-0.04 -0.07,-0.05 -0.06,-0.05 v 0 l -0.05,-0.07 -0.05,-0.07 -0.05,-0.08 -0.04,-0.08 -0.03,-0.09 -0.02,-0.1 -0.02,-0.1 -0.02,-0.11 -0.01,-0.12 v -0.12 -3.34 0 -0.02 -0.02 l -0.01,-0.02 -0.01,-0.01 V 457 l -0.02,-0.01 -0.01,-0.01 h -0.01 -0.02 -0.02 -0.8 v 0 l -0.02,-0.01 h -0.02 -0.02 l -0.01,-0.01 -0.01,-0.01 -0.01,-0.01 -0.01,-0.02 -0.01,-0.01 v -0.02 -0.02 -0.42 0 -0.02 -0.02 l 0.01,-0.02 0.01,-0.01 0.01,-0.01 0.01,-0.01 0.01,-0.01 h 0.01 0.02 0.02 0.85 v 0 l 0.01,-0.01 h 0.02 0.01 l 0.01,-0.01 v 0 l 0.01,-0.01 v -0.01 l 0.01,-0.02 v -0.01 -0.01 l 0.11,-1.59 v 0 -0.03 l 0.01,-0.02 v -0.02 l 0.01,-0.02 0.01,-0.01 0.01,-0.01 0.02,-0.01 0.01,-0.01 h 0.02 0.02 0.5 v 0 h 0.02 0.02 l 0.02,0.01 0.02,0.01 0.01,0.01 0.01,0.02 0.01,0.01 0.01,0.03 v 0.02 0.03 1.58 0 0.01 0.01 l 0.01,0.02 v 0.01 l 0.01,0.01 h 0.01 l 0.01,0.01 h 0.01 0.02 l 0.01,0.01 h 1.26 v 0 h 0.02 0.02 0.02 l 0.01,0.01 0.01,0.01 0.01,0.01 0.01,0.01 0.01,0.01 v 0.02 0.02 0.43 0 0.02 0.02 l -0.01,0.01 -0.01,0.02 -0.01,0.01 -0.01,0.01 -0.01,0.01 h -0.02 -0.02 l -0.02,0.01 z"
         style="fill:#000000;fill-rule:evenodd;stroke:none;stroke-width:0.75;stroke-linecap:round;stroke-linejoin:round;stroke-miterlimit:10"
         clip-path="url(#cpMC4wMHw3NTYuMDB8NDY4LjAwfDAuMDA=)"
         id="path730"
         transform="matrix(0.26458333,0,0,0.26458333,-3.6881005,54.087353)" />
      <path
         d="m 706.61,461.01 v 0 l -0.07,0.07 -0.08,0.06 -0.08,0.07 -0.08,0.06 -0.08,0.05 -0.08,0.06 -0.08,0.05 -0.09,0.04 -0.08,0.05 -0.09,0.04 v 0 l -0.09,0.03 -0.09,0.03 -0.09,0.03 -0.09,0.03 -0.1,0.02 -0.1,0.02 -0.1,0.01 -0.1,0.01 h -0.1 l -0.11,0.01 v 0 l -0.15,-0.01 -0.15,-0.01 -0.14,-0.02 -0.13,-0.03 -0.13,-0.03 -0.12,-0.05 -0.11,-0.05 -0.11,-0.06 -0.1,-0.07 -0.09,-0.07 v 0 l -0.08,-0.09 -0.08,-0.08 -0.06,-0.1 -0.06,-0.09 -0.05,-0.11 -0.04,-0.1 -0.03,-0.12 -0.02,-0.11 -0.02,-0.13 v -0.12 0 -0.11 l 0.01,-0.1 0.02,-0.1 0.02,-0.09 0.03,-0.1 0.03,-0.09 0.04,-0.08 0.04,-0.09 0.05,-0.08 0.06,-0.07 v 0 l 0.06,-0.08 0.07,-0.07 0.08,-0.07 0.08,-0.07 0.08,-0.06 0.09,-0.06 0.1,-0.06 0.11,-0.05 0.11,-0.05 0.11,-0.04 v 0 l 0.12,-0.05 0.13,-0.04 0.13,-0.04 0.14,-0.03 0.14,-0.03 0.15,-0.03 0.15,-0.02 0.16,-0.02 0.16,-0.01 0.17,-0.01 0.78,-0.06 v 0 l 0.01,-0.01 h 0.01 0.02 l 0.01,-0.01 h 0.01 0.01 l 0.01,-0.01 h 0.01 l 0.01,-0.01 h 0.01 v 0 l 0.01,-0.01 0.01,-0.01 0.01,-0.01 v -0.01 l 0.01,-0.01 v -0.01 l 0.01,-0.01 v -0.01 -0.02 -0.01 -0.27 0 -0.11 l -0.01,-0.1 -0.02,-0.1 -0.02,-0.09 -0.03,-0.09 -0.04,-0.08 -0.05,-0.08 -0.05,-0.07 -0.05,-0.07 -0.07,-0.06 v 0 l -0.07,-0.07 -0.07,-0.05 -0.08,-0.05 -0.08,-0.04 -0.09,-0.03 -0.09,-0.03 -0.1,-0.03 -0.1,-0.01 -0.11,-0.01 h -0.11 v 0 h -0.09 -0.08 l -0.09,0.01 -0.08,0.02 -0.08,0.02 -0.08,0.02 -0.08,0.02 -0.07,0.03 -0.08,0.04 -0.07,0.04 v 0 l -0.07,0.04 -0.07,0.04 -0.06,0.05 -0.07,0.06 -0.06,0.06 -0.06,0.06 -0.07,0.06 -0.05,0.07 -0.06,0.08 -0.06,0.08 v 0 l -0.01,0.01 h -0.01 v 0.01 l -0.01,0.01 -0.01,0.01 v 0 l -0.01,0.01 -0.01,0.01 v 0 l -0.01,0.01 v 0 0 h -0.01 -0.01 v 0 h -0.01 -0.01 l -0.01,-0.01 h -0.01 -0.01 -0.01 l -0.54,-0.18 v 0 l -0.01,-0.01 v 0 l -0.01,-0.01 v 0 l -0.01,-0.01 v 0 l -0.01,-0.01 v 0 l -0.01,-0.01 v 0 0 -0.01 -0.01 -0.01 -0.01 -0.01 l 0.01,-0.01 v -0.01 l 0.01,-0.01 v -0.02 l 0.01,-0.01 v 0 l 0.06,-0.11 0.07,-0.09 0.07,-0.1 0.08,-0.09 0.08,-0.08 0.09,-0.08 0.09,-0.07 0.09,-0.08 0.1,-0.06 0.11,-0.06 v 0 l 0.11,-0.06 0.12,-0.05 0.12,-0.05 0.13,-0.04 0.13,-0.03 0.14,-0.03 0.14,-0.02 0.14,-0.01 0.15,-0.01 h 0.16 v 0 h 0.13 0.13 l 0.12,0.01 0.12,0.02 0.11,0.02 0.11,0.02 0.11,0.03 0.1,0.03 0.09,0.04 0.09,0.04 v 0 l 0.09,0.04 0.08,0.04 0.08,0.05 0.07,0.06 0.07,0.05 0.07,0.06 0.06,0.07 0.05,0.07 0.05,0.07 0.05,0.08 v 0 l 0.04,0.07 0.04,0.08 0.04,0.09 0.03,0.08 0.02,0.09 0.02,0.1 0.02,0.09 0.01,0.1 0.01,0.1 v 0.11 3.54 0 0.01 0.02 0.01 0.02 l -0.01,0.01 v 0.01 0.01 l -0.01,0.01 v 0.01 l -0.01,0.01 v 0 h -0.01 v 0.01 h -0.01 -0.01 l -0.01,0.01 h -0.01 -0.01 -0.01 l -0.02,0.01 h -0.01 -0.51 v 0 h -0.01 l -0.02,-0.01 h -0.01 -0.01 -0.01 l -0.01,-0.01 h -0.01 l -0.01,-0.01 v -0.01 h -0.01 v 0 l -0.01,-0.01 v -0.02 l -0.01,-0.01 v -0.01 -0.01 l -0.01,-0.01 v -0.01 -0.02 l -0.01,-0.01 v -0.01 l -0.01,-0.46 v 0 l -0.01,-0.03 -0.01,-0.02 -0.01,-0.02 h -0.01 l -0.01,-0.01 h -0.02 l -0.02,0.01 -0.02,0.01 -0.02,0.01 z m 0.13,-1.9 v 0 -0.04 l -0.01,-0.03 v -0.02 l -0.01,-0.02 -0.01,-0.02 -0.02,-0.01 -0.02,-0.01 -0.02,-0.01 h -0.02 -0.03 l -0.66,0.06 v 0 h -0.09 l -0.09,0.01 h -0.09 l -0.08,0.01 -0.08,0.02 -0.09,0.01 -0.07,0.01 -0.08,0.02 -0.08,0.02 -0.07,0.02 v 0 l -0.07,0.01 -0.07,0.02 -0.07,0.02 -0.06,0.03 -0.06,0.02 -0.06,0.03 -0.06,0.02 -0.06,0.03 -0.05,0.03 -0.05,0.03 v 0 l -0.05,0.03 -0.04,0.03 -0.05,0.03 -0.04,0.04 -0.04,0.03 -0.04,0.04 -0.03,0.03 -0.03,0.04 -0.03,0.04 -0.03,0.05 v 0 l -0.02,0.04 -0.03,0.04 -0.02,0.04 -0.01,0.05 -0.02,0.04 -0.01,0.05 -0.01,0.05 v 0.05 l -0.01,0.05 v 0.06 0 0.08 l 0.01,0.08 0.02,0.08 0.02,0.08 0.03,0.07 0.03,0.07 0.04,0.06 0.04,0.06 0.05,0.05 0.06,0.06 v 0 l 0.06,0.04 0.07,0.04 0.08,0.04 0.07,0.03 0.08,0.03 0.09,0.02 0.09,0.01 0.09,0.02 h 0.1 l 0.1,0.01 v 0 l 0.06,-0.01 h 0.07 0.06 l 0.06,-0.01 0.06,-0.01 0.06,-0.01 0.06,-0.02 0.06,-0.01 0.06,-0.02 0.06,-0.02 v 0 l 0.06,-0.03 0.06,-0.02 0.05,-0.03 0.06,-0.03 0.05,-0.03 0.05,-0.03 0.05,-0.03 0.05,-0.03 0.05,-0.04 0.04,-0.03 v 0 l 0.05,-0.04 0.04,-0.04 0.04,-0.04 0.04,-0.04 0.03,-0.04 0.04,-0.04 0.03,-0.04 0.03,-0.03 0.03,-0.04 0.02,-0.04 v 0 l 0.03,-0.04 0.02,-0.04 0.02,-0.04 0.01,-0.04 0.02,-0.04 0.01,-0.04 0.01,-0.04 0.01,-0.04 v -0.04 -0.03 z"
         style="fill:#000000;fill-rule:evenodd;stroke:none;stroke-width:0.75;stroke-linecap:round;stroke-linejoin:round;stroke-miterlimit:10"
         clip-path="url(#cpMC4wMHw3NTYuMDB8NDY4LjAwfDAuMDA=)"
         id="path732"
         transform="matrix(0.26458333,0,0,0.26458333,-3.6881005,54.087353)" />
      <path
         d="m 709.82,457.54 v 0 0.03 l -0.01,0.02 -0.01,0.03 -0.01,0.02 -0.01,0.02 -0.02,0.01 -0.03,0.01 -0.02,0.01 h -0.04 l -0.03,0.01 h -0.7 v 0 l -0.03,-0.01 h -0.02 l -0.03,-0.01 -0.02,-0.01 -0.01,-0.01 -0.02,-0.02 -0.01,-0.02 v -0.02 l -0.01,-0.03 v -0.02 -0.84 0 -0.03 -0.02 l 0.01,-0.02 0.01,-0.02 0.01,-0.01 0.01,-0.01 0.01,-0.01 0.02,-0.01 h 0.02 0.02 0.82 v 0 h 0.02 0.02 l 0.01,0.01 h 0.01 l 0.02,0.01 v 0.02 l 0.01,0.01 0.01,0.02 v 0.01 0.03 z m 0,3.92 v 0 0.03 l -0.01,0.02 -0.01,0.03 -0.01,0.02 -0.01,0.02 -0.02,0.01 -0.03,0.01 -0.02,0.01 h -0.04 l -0.03,0.01 h -0.7 v 0 l -0.03,-0.01 h -0.02 l -0.03,-0.01 -0.02,-0.01 -0.01,-0.01 -0.02,-0.01 -0.01,-0.02 v -0.02 l -0.01,-0.03 v -0.02 -0.85 0 -0.03 -0.02 l 0.01,-0.02 0.01,-0.01 0.01,-0.01 0.01,-0.02 h 0.01 l 0.02,-0.01 h 0.02 0.02 0.82 v 0 h 0.02 0.02 l 0.01,0.01 h 0.01 l 0.02,0.01 v 0.02 l 0.01,0.01 0.01,0.02 v 0.01 0.03 z"
         style="fill:#000000;fill-rule:evenodd;stroke:none;stroke-width:0.75;stroke-linecap:round;stroke-linejoin:round;stroke-miterlimit:10"
         clip-path="url(#cpMC4wMHw3NTYuMDB8NDY4LjAwfDAuMDA=)"
         id="path734"
         transform="matrix(0.26458333,0,0,0.26458333,-3.6881005,54.087353)" />
      <path
         d="m 717.48,455.61 v 0 l -0.05,-0.07 -0.06,-0.05 -0.06,-0.06 -0.06,-0.06 -0.07,-0.05 -0.07,-0.05 -0.07,-0.05 -0.07,-0.05 -0.08,-0.05 -0.08,-0.04 v 0 l -0.08,-0.05 -0.09,-0.03 -0.09,-0.04 -0.1,-0.03 -0.1,-0.02 -0.11,-0.02 -0.11,-0.01 -0.11,-0.02 h -0.12 -0.12 v 0 h -0.15 l -0.14,0.01 -0.13,0.02 -0.13,0.02 -0.12,0.03 -0.11,0.03 -0.11,0.05 -0.1,0.05 -0.1,0.05 -0.09,0.07 v 0 l -0.08,0.06 -0.07,0.08 -0.07,0.08 -0.05,0.08 -0.05,0.09 -0.04,0.1 -0.03,0.09 -0.02,0.11 -0.02,0.11 v 0.12 0 0.03 0.03 l 0.01,0.04 v 0.03 l 0.01,0.04 0.01,0.04 v 0.03 l 0.02,0.04 0.01,0.04 0.01,0.05 v 0 l 0.02,0.04 0.02,0.04 0.02,0.04 0.03,0.04 0.03,0.04 0.03,0.04 0.04,0.04 0.03,0.05 0.05,0.04 0.04,0.04 v 0 l 0.05,0.04 0.05,0.03 0.06,0.04 0.06,0.04 0.07,0.04 0.07,0.03 0.08,0.04 0.08,0.03 0.08,0.03 0.09,0.04 1.45,0.48 v 0 l 0.18,0.06 0.16,0.06 0.16,0.07 0.14,0.08 0.14,0.08 0.12,0.08 0.11,0.08 0.11,0.09 0.09,0.1 0.08,0.1 v 0 l 0.07,0.1 0.07,0.1 0.05,0.11 0.05,0.11 0.05,0.11 0.03,0.12 0.03,0.12 0.02,0.12 0.01,0.13 v 0.14 0 0.12 l -0.01,0.12 -0.02,0.12 -0.02,0.12 -0.03,0.11 -0.03,0.11 -0.05,0.11 -0.04,0.1 -0.06,0.1 -0.06,0.1 v 0 l -0.07,0.09 -0.07,0.08 -0.08,0.08 -0.08,0.08 -0.09,0.07 -0.09,0.07 -0.1,0.07 -0.1,0.06 -0.11,0.05 -0.12,0.06 v 0 l -0.12,0.04 -0.13,0.04 -0.13,0.04 -0.13,0.03 -0.14,0.03 -0.14,0.02 -0.15,0.01 -0.16,0.02 h -0.16 l -0.16,0.01 v 0 l -0.12,-0.01 h -0.12 l -0.11,-0.01 -0.12,-0.01 -0.11,-0.01 -0.11,-0.01 -0.11,-0.02 -0.1,-0.02 -0.11,-0.03 -0.1,-0.02 v 0 l -0.1,-0.04 -0.1,-0.03 -0.1,-0.04 -0.09,-0.03 -0.09,-0.04 -0.09,-0.05 -0.09,-0.04 -0.09,-0.05 -0.08,-0.05 -0.08,-0.05 v 0 l -0.08,-0.06 -0.07,-0.06 -0.07,-0.06 -0.07,-0.07 -0.07,-0.07 -0.07,-0.07 -0.06,-0.07 -0.06,-0.08 -0.06,-0.07 -0.06,-0.08 v 0 l -0.01,-0.02 -0.01,-0.01 v -0.01 l -0.01,-0.02 v -0.01 l -0.01,-0.01 v -0.01 -0.01 -0.01 -0.01 0 l 0.01,-0.02 v -0.01 l 0.01,-0.01 0.01,-0.01 0.01,-0.01 0.01,-0.02 0.01,-0.01 0.01,-0.01 0.02,-0.01 0.01,-0.01 0.36,-0.25 v 0 l 0.02,-0.02 0.02,-0.01 0.02,-0.01 h 0.01 l 0.02,-0.01 h 0.01 l 0.02,-0.01 h 0.01 0.01 0.01 v 0 h 0.01 0.01 0.01 l 0.02,0.01 h 0.01 l 0.01,0.01 v 0 l 0.01,0.01 0.01,0.01 0.01,0.02 v 0 l 0.05,0.06 0.06,0.07 0.05,0.06 0.05,0.06 0.06,0.06 0.05,0.05 0.05,0.06 0.06,0.05 0.05,0.05 0.05,0.05 v 0 l 0.05,0.04 0.06,0.04 0.05,0.04 0.06,0.03 0.06,0.04 0.06,0.03 0.06,0.03 0.07,0.03 0.06,0.02 0.07,0.03 v 0 l 0.07,0.02 0.08,0.02 0.07,0.01 0.08,0.02 0.09,0.01 0.08,0.01 0.09,0.01 h 0.1 0.09 l 0.1,0.01 v 0 l 0.16,-0.01 0.14,-0.01 0.15,-0.01 0.13,-0.02 0.14,-0.02 0.12,-0.04 0.12,-0.03 0.11,-0.04 0.11,-0.05 0.1,-0.05 v 0 l 0.09,-0.07 0.09,-0.07 0.07,-0.07 0.06,-0.09 0.06,-0.09 0.04,-0.1 0.04,-0.1 0.02,-0.12 0.02,-0.12 v -0.12 0 -0.05 -0.05 l -0.01,-0.05 -0.01,-0.05 v -0.04 l -0.02,-0.05 -0.01,-0.04 -0.01,-0.04 -0.02,-0.04 -0.02,-0.04 v 0 l -0.02,-0.05 -0.03,-0.04 -0.02,-0.04 -0.03,-0.04 -0.03,-0.03 -0.04,-0.04 -0.04,-0.04 -0.04,-0.03 -0.04,-0.04 -0.05,-0.03 v 0 l -0.05,-0.04 -0.05,-0.04 -0.06,-0.03 -0.07,-0.04 -0.06,-0.03 -0.07,-0.04 -0.08,-0.03 -0.08,-0.04 -0.08,-0.03 -0.09,-0.03 -1.52,-0.52 v 0 l -0.11,-0.04 -0.1,-0.04 -0.1,-0.05 -0.1,-0.04 -0.09,-0.05 -0.08,-0.05 -0.09,-0.05 -0.08,-0.06 -0.07,-0.06 -0.07,-0.05 v 0 l -0.07,-0.07 -0.06,-0.06 -0.06,-0.06 -0.05,-0.06 -0.05,-0.07 -0.05,-0.07 -0.05,-0.06 -0.04,-0.07 -0.04,-0.07 -0.03,-0.07 v 0 l -0.03,-0.08 -0.02,-0.07 -0.03,-0.07 -0.02,-0.08 -0.01,-0.07 -0.02,-0.07 -0.01,-0.08 v -0.07 l -0.01,-0.08 v -0.07 0 -0.13 l 0.01,-0.12 0.02,-0.12 0.02,-0.11 0.03,-0.11 0.04,-0.11 0.04,-0.1 0.05,-0.1 0.05,-0.1 0.06,-0.09 v 0 l 0.07,-0.1 0.07,-0.08 0.07,-0.09 0.08,-0.08 0.09,-0.07 0.09,-0.07 0.1,-0.06 0.1,-0.07 0.1,-0.05 0.11,-0.05 v 0 l 0.12,-0.05 0.12,-0.05 0.12,-0.04 0.13,-0.03 0.13,-0.03 0.13,-0.02 0.14,-0.02 0.14,-0.01 0.15,-0.01 h 0.15 v 0 h 0.1 0.1 l 0.1,0.01 h 0.09 l 0.1,0.02 0.09,0.01 0.09,0.01 0.09,0.02 0.09,0.02 0.08,0.03 v 0 l 0.09,0.02 0.08,0.03 0.08,0.03 0.08,0.03 0.08,0.03 0.08,0.04 0.07,0.03 0.08,0.04 0.07,0.04 0.07,0.05 v 0 l 0.07,0.04 0.07,0.05 0.07,0.05 0.06,0.05 0.07,0.05 0.06,0.05 0.06,0.06 0.06,0.06 0.06,0.05 0.05,0.07 v 0 h 0.01 l 0.01,0.01 v 0.01 l 0.01,0.01 v 0.01 l 0.01,0.01 v 0.01 l 0.01,0.01 v 0.01 0.01 0 0.01 0.01 0.01 0.01 l -0.01,0.01 v 0.01 l -0.01,0.01 -0.01,0.01 -0.01,0.01 -0.01,0.01 -0.46,0.36 v 0 h -0.01 l -0.01,0.01 h -0.01 -0.01 v 0.01 h -0.01 -0.01 -0.01 v 0 h -0.01 v 0 l -0.01,-0.01 v 0 l -0.01,-0.01 -0.01,-0.01 h -0.01 l -0.01,-0.01 -0.01,-0.01 -0.01,-0.01 -0.02,-0.01 z"
         style="fill:#000000;fill-rule:evenodd;stroke:none;stroke-width:0.75;stroke-linecap:round;stroke-linejoin:round;stroke-miterlimit:10"
         clip-path="url(#cpMC4wMHw3NTYuMDB8NDY4LjAwfDAuMDA=)"
         id="path736"
         transform="matrix(0.26458333,0,0,0.26458333,-3.6881005,54.087353)" />
      <path
         d="m 721.08,456.98 v 0 h -0.01 -0.02 -0.01 l -0.01,0.01 -0.01,0.01 h -0.01 v 0.01 l -0.01,0.02 v 0.01 0.02 3.17 0 0.09 l 0.01,0.08 v 0.08 l 0.02,0.07 0.01,0.07 0.02,0.06 0.02,0.05 0.02,0.05 0.03,0.04 0.03,0.04 v 0 l 0.03,0.03 0.04,0.02 0.04,0.03 0.04,0.02 0.05,0.02 0.05,0.01 0.05,0.01 0.06,0.01 h 0.06 l 0.06,0.01 h 0.69 v 0 h 0.01 0.01 0.01 0.01 0.01 v 0.01 h 0.01 0.01 v 0.01 l 0.01,0.01 v 0 h 0.01 v 0.01 h 0.01 v 0.01 0.01 h 0.01 v 0.01 0.01 0.01 0.02 l -0.01,0.34 v 0 0.01 0.02 l -0.01,0.02 -0.01,0.01 -0.01,0.02 -0.01,0.01 -0.02,0.01 -0.02,0.01 -0.02,0.01 -0.02,0.01 v 0 h -0.02 -0.02 l -0.03,0.01 h -0.02 -0.03 l -0.03,0.01 h -0.03 -0.04 -0.03 l -0.04,0.01 v 0 h -0.04 -0.03 -0.04 -0.03 l -0.04,0.01 h -0.04 -0.03 -0.04 -0.03 l -0.04,0.01 v 0 h -0.03 -0.04 -0.03 -0.03 -0.03 -0.03 -0.02 -0.03 -0.02 -0.03 v 0 l -0.12,-0.01 -0.12,-0.01 -0.11,-0.01 -0.1,-0.02 -0.09,-0.03 -0.09,-0.03 -0.08,-0.04 -0.08,-0.04 -0.07,-0.05 -0.06,-0.05 v 0 l -0.05,-0.07 -0.05,-0.07 -0.05,-0.08 -0.04,-0.08 -0.03,-0.09 -0.02,-0.1 -0.02,-0.1 -0.02,-0.11 -0.01,-0.12 v -0.12 -3.34 0 -0.02 -0.02 l -0.01,-0.02 -0.01,-0.01 V 457 l -0.02,-0.01 -0.01,-0.01 h -0.01 -0.02 -0.02 -0.8 v 0 l -0.02,-0.01 h -0.02 -0.02 l -0.01,-0.01 -0.01,-0.01 -0.01,-0.01 -0.01,-0.02 -0.01,-0.01 v -0.02 -0.02 -0.42 0 -0.02 -0.02 l 0.01,-0.02 0.01,-0.01 0.01,-0.01 0.01,-0.01 0.01,-0.01 h 0.01 0.02 0.02 0.85 v 0 l 0.01,-0.01 h 0.02 0.01 l 0.01,-0.01 v 0 l 0.01,-0.01 v -0.01 l 0.01,-0.02 v -0.01 -0.01 l 0.11,-1.59 v 0 -0.03 l 0.01,-0.02 v -0.02 l 0.01,-0.02 0.01,-0.01 0.01,-0.01 0.02,-0.01 0.01,-0.01 h 0.02 0.02 0.5 v 0 h 0.02 0.02 l 0.02,0.01 0.02,0.01 0.01,0.01 0.01,0.02 0.01,0.01 0.01,0.03 v 0.02 0.03 1.58 0 0.01 0.01 l 0.01,0.02 v 0.01 l 0.01,0.01 h 0.01 l 0.01,0.01 h 0.01 0.02 l 0.01,0.01 h 1.26 v 0 h 0.02 0.02 0.02 l 0.01,0.01 0.01,0.01 0.01,0.01 0.01,0.01 0.01,0.01 v 0.02 0.02 0.43 0 0.02 0.02 l -0.01,0.01 -0.01,0.02 -0.01,0.01 -0.01,0.01 -0.01,0.01 h -0.02 -0.02 l -0.02,0.01 z"
         style="fill:#000000;fill-rule:evenodd;stroke:none;stroke-width:0.75;stroke-linecap:round;stroke-linejoin:round;stroke-miterlimit:10"
         clip-path="url(#cpMC4wMHw3NTYuMDB8NDY4LjAwfDAuMDA=)"
         id="path738"
         transform="matrix(0.26458333,0,0,0.26458333,-3.6881005,54.087353)" />
      <path
         d="m 726.6,461.01 v 0 l -0.07,0.07 -0.08,0.06 -0.08,0.07 -0.08,0.06 -0.08,0.05 -0.08,0.06 -0.08,0.05 -0.09,0.04 -0.08,0.05 -0.09,0.04 v 0 l -0.09,0.03 -0.09,0.03 -0.09,0.03 -0.09,0.03 -0.1,0.02 -0.1,0.02 -0.1,0.01 -0.1,0.01 h -0.1 l -0.11,0.01 v 0 l -0.15,-0.01 -0.15,-0.01 -0.14,-0.02 -0.13,-0.03 -0.13,-0.03 -0.12,-0.05 -0.11,-0.05 -0.11,-0.06 -0.1,-0.07 -0.09,-0.07 v 0 l -0.08,-0.09 -0.08,-0.08 -0.06,-0.1 -0.06,-0.09 -0.05,-0.11 -0.04,-0.1 -0.03,-0.12 -0.02,-0.11 -0.02,-0.13 v -0.12 0 -0.11 l 0.01,-0.1 0.02,-0.1 0.02,-0.09 0.03,-0.1 0.03,-0.09 0.04,-0.08 0.04,-0.09 0.05,-0.08 0.06,-0.07 v 0 l 0.06,-0.08 0.07,-0.07 0.08,-0.07 0.08,-0.07 0.08,-0.06 0.09,-0.06 0.1,-0.06 0.11,-0.05 0.11,-0.05 0.11,-0.04 v 0 l 0.12,-0.05 0.13,-0.04 0.13,-0.04 0.14,-0.03 0.14,-0.03 0.15,-0.03 0.15,-0.02 0.16,-0.02 0.16,-0.01 0.17,-0.01 0.78,-0.06 v 0 l 0.01,-0.01 h 0.01 0.02 l 0.01,-0.01 h 0.01 0.01 l 0.01,-0.01 h 0.01 l 0.01,-0.01 h 0.01 v 0 l 0.01,-0.01 0.01,-0.01 0.01,-0.01 v -0.01 l 0.01,-0.01 v -0.01 l 0.01,-0.01 v -0.01 -0.02 -0.01 -0.27 0 -0.11 l -0.01,-0.1 -0.02,-0.1 -0.02,-0.09 -0.03,-0.09 -0.04,-0.08 -0.05,-0.08 -0.05,-0.07 -0.05,-0.07 -0.07,-0.06 v 0 l -0.07,-0.07 -0.07,-0.05 -0.08,-0.05 -0.08,-0.04 -0.09,-0.03 -0.09,-0.03 -0.1,-0.03 -0.1,-0.01 -0.11,-0.01 h -0.11 v 0 h -0.09 -0.08 l -0.09,0.01 -0.08,0.02 -0.08,0.02 -0.08,0.02 -0.08,0.02 -0.07,0.03 -0.08,0.04 -0.07,0.04 v 0 l -0.07,0.04 -0.07,0.04 -0.06,0.05 -0.07,0.06 -0.06,0.06 -0.06,0.06 -0.07,0.06 -0.05,0.07 -0.06,0.08 -0.06,0.08 v 0 l -0.01,0.01 h -0.01 v 0.01 l -0.01,0.01 -0.01,0.01 v 0 l -0.01,0.01 -0.01,0.01 v 0 l -0.01,0.01 v 0 0 h -0.01 -0.01 v 0 h -0.01 -0.01 l -0.01,-0.01 h -0.01 -0.01 -0.01 l -0.54,-0.18 v 0 l -0.01,-0.01 v 0 l -0.01,-0.01 v 0 l -0.01,-0.01 v 0 l -0.01,-0.01 v 0 l -0.01,-0.01 v 0 0 -0.01 -0.01 -0.01 -0.01 -0.01 l 0.01,-0.01 v -0.01 l 0.01,-0.01 v -0.02 l 0.01,-0.01 v 0 l 0.06,-0.11 0.07,-0.09 0.07,-0.1 0.08,-0.09 0.08,-0.08 0.09,-0.08 0.09,-0.07 0.09,-0.08 0.1,-0.06 0.11,-0.06 v 0 l 0.11,-0.06 0.12,-0.05 0.12,-0.05 0.13,-0.04 0.13,-0.03 0.14,-0.03 0.14,-0.02 0.14,-0.01 0.15,-0.01 h 0.16 v 0 h 0.13 0.13 l 0.12,0.01 0.12,0.02 0.11,0.02 0.11,0.02 0.11,0.03 0.1,0.03 0.09,0.04 0.09,0.04 v 0 l 0.09,0.04 0.08,0.04 0.08,0.05 0.07,0.06 0.07,0.05 0.07,0.06 0.06,0.07 0.05,0.07 0.05,0.07 0.05,0.08 v 0 l 0.04,0.07 0.04,0.08 0.04,0.09 0.03,0.08 0.02,0.09 0.02,0.1 0.02,0.09 0.01,0.1 0.01,0.1 v 0.11 3.54 0 0.01 0.02 0.01 0.02 l -0.01,0.01 v 0.01 0.01 l -0.01,0.01 v 0.01 l -0.01,0.01 v 0 h -0.01 v 0.01 h -0.01 -0.01 l -0.01,0.01 h -0.01 -0.01 -0.01 l -0.02,0.01 h -0.01 -0.51 v 0 h -0.01 l -0.02,-0.01 h -0.01 -0.01 -0.01 l -0.01,-0.01 h -0.01 l -0.01,-0.01 v -0.01 h -0.01 v 0 l -0.01,-0.01 v -0.02 l -0.01,-0.01 v -0.01 -0.01 l -0.01,-0.01 v -0.01 -0.02 l -0.01,-0.01 v -0.01 l -0.01,-0.46 v 0 l -0.01,-0.03 -0.01,-0.02 -0.01,-0.02 h -0.01 l -0.01,-0.01 h -0.02 l -0.02,0.01 -0.02,0.01 -0.02,0.01 z m 0.13,-1.9 v 0 -0.04 l -0.01,-0.03 v -0.02 l -0.01,-0.02 -0.01,-0.02 -0.02,-0.01 -0.02,-0.01 -0.02,-0.01 h -0.02 -0.03 l -0.66,0.06 v 0 h -0.09 l -0.09,0.01 h -0.09 l -0.08,0.01 -0.08,0.02 -0.09,0.01 -0.07,0.01 -0.08,0.02 -0.08,0.02 -0.07,0.02 v 0 l -0.07,0.01 -0.07,0.02 -0.07,0.02 -0.06,0.03 -0.06,0.02 -0.06,0.03 -0.06,0.02 -0.06,0.03 -0.05,0.03 -0.05,0.03 v 0 l -0.05,0.03 -0.04,0.03 -0.05,0.03 -0.04,0.04 -0.04,0.03 -0.04,0.04 -0.03,0.03 -0.03,0.04 -0.03,0.04 -0.03,0.05 v 0 l -0.02,0.04 -0.03,0.04 -0.02,0.04 -0.01,0.05 -0.02,0.04 -0.01,0.05 -0.01,0.05 v 0.05 l -0.01,0.05 v 0.06 0 0.08 l 0.01,0.08 0.02,0.08 0.02,0.08 0.03,0.07 0.03,0.07 0.04,0.06 0.04,0.06 0.05,0.05 0.06,0.06 v 0 l 0.06,0.04 0.07,0.04 0.08,0.04 0.07,0.03 0.08,0.03 0.09,0.02 0.09,0.01 0.09,0.02 h 0.1 l 0.1,0.01 v 0 l 0.06,-0.01 h 0.07 0.06 l 0.06,-0.01 0.06,-0.01 0.06,-0.01 0.06,-0.02 0.06,-0.01 0.06,-0.02 0.06,-0.02 v 0 l 0.06,-0.03 0.06,-0.02 0.05,-0.03 0.06,-0.03 0.05,-0.03 0.05,-0.03 0.05,-0.03 0.05,-0.03 0.05,-0.04 0.04,-0.03 v 0 l 0.05,-0.04 0.04,-0.04 0.04,-0.04 0.04,-0.04 0.03,-0.04 0.04,-0.04 0.03,-0.04 0.03,-0.03 0.03,-0.04 0.02,-0.04 v 0 l 0.03,-0.04 0.02,-0.04 0.02,-0.04 0.01,-0.04 0.02,-0.04 0.01,-0.04 0.01,-0.04 0.01,-0.04 v -0.04 -0.03 z"
         style="fill:#000000;fill-rule:evenodd;stroke:none;stroke-width:0.75;stroke-linecap:round;stroke-linejoin:round;stroke-miterlimit:10"
         clip-path="url(#cpMC4wMHw3NTYuMDB8NDY4LjAwfDAuMDA=)"
         id="path740"
         transform="matrix(0.26458333,0,0,0.26458333,-3.6881005,54.087353)" />
      <path
         d="m 730.43,456.98 v 0 h -0.01 -0.02 -0.01 l -0.01,0.01 -0.01,0.01 h -0.01 v 0.01 l -0.01,0.02 v 0.01 0.02 3.17 0 0.09 l 0.01,0.08 v 0.08 l 0.02,0.07 0.01,0.07 0.02,0.06 0.02,0.05 0.02,0.05 0.03,0.04 0.03,0.04 v 0 l 0.03,0.03 0.04,0.02 0.04,0.03 0.04,0.02 0.05,0.02 0.05,0.01 0.05,0.01 0.06,0.01 h 0.06 l 0.06,0.01 h 0.69 v 0 h 0.01 0.01 0.01 0.01 0.01 v 0.01 h 0.01 0.01 v 0.01 l 0.01,0.01 v 0 h 0.01 v 0.01 h 0.01 v 0.01 0.01 h 0.01 v 0.01 0.01 0.01 0.02 l -0.01,0.34 v 0 0.01 0.02 l -0.01,0.02 -0.01,0.01 -0.01,0.02 -0.01,0.01 -0.02,0.01 -0.02,0.01 -0.02,0.01 -0.02,0.01 v 0 h -0.02 -0.02 l -0.03,0.01 h -0.02 -0.03 l -0.03,0.01 h -0.03 -0.04 -0.03 l -0.04,0.01 v 0 h -0.04 -0.03 -0.04 -0.03 l -0.04,0.01 h -0.04 -0.03 -0.04 -0.03 l -0.04,0.01 v 0 h -0.03 -0.04 -0.03 -0.03 -0.03 -0.03 -0.02 -0.03 -0.02 -0.03 v 0 l -0.12,-0.01 -0.12,-0.01 -0.11,-0.01 -0.1,-0.02 -0.09,-0.03 -0.09,-0.03 -0.08,-0.04 -0.08,-0.04 -0.07,-0.05 -0.06,-0.05 v 0 l -0.05,-0.07 -0.05,-0.07 -0.05,-0.08 -0.04,-0.08 -0.03,-0.09 -0.02,-0.1 -0.02,-0.1 -0.02,-0.11 -0.01,-0.12 v -0.12 -3.34 0 -0.02 -0.02 l -0.01,-0.02 -0.01,-0.01 V 457 l -0.02,-0.01 -0.01,-0.01 h -0.01 -0.02 -0.02 -0.8 v 0 l -0.02,-0.01 h -0.02 -0.02 l -0.01,-0.01 -0.01,-0.01 -0.01,-0.01 -0.01,-0.02 -0.01,-0.01 v -0.02 -0.02 -0.42 0 -0.02 -0.02 l 0.01,-0.02 0.01,-0.01 0.01,-0.01 0.01,-0.01 0.01,-0.01 h 0.01 0.02 0.02 0.85 v 0 l 0.01,-0.01 h 0.02 0.01 l 0.01,-0.01 v 0 l 0.01,-0.01 v -0.01 l 0.01,-0.02 v -0.01 -0.01 l 0.11,-1.59 v 0 -0.03 l 0.01,-0.02 v -0.02 l 0.01,-0.02 0.01,-0.01 0.01,-0.01 0.02,-0.01 0.01,-0.01 h 0.02 0.02 0.5 v 0 h 0.02 0.02 l 0.02,0.01 0.02,0.01 0.01,0.01 0.01,0.02 0.01,0.01 0.01,0.03 v 0.02 0.03 1.58 0 0.01 0.01 l 0.01,0.02 v 0.01 l 0.01,0.01 h 0.01 l 0.01,0.01 h 0.01 0.02 l 0.01,0.01 h 1.26 v 0 h 0.02 0.02 0.02 l 0.01,0.01 0.01,0.01 0.01,0.01 0.01,0.01 0.01,0.01 v 0.02 0.02 0.43 0 0.02 0.02 l -0.01,0.01 -0.01,0.02 -0.01,0.01 -0.01,0.01 -0.01,0.01 h -0.02 -0.02 l -0.02,0.01 z"
         style="fill:#000000;fill-rule:evenodd;stroke:none;stroke-width:0.75;stroke-linecap:round;stroke-linejoin:round;stroke-miterlimit:10"
         clip-path="url(#cpMC4wMHw3NTYuMDB8NDY4LjAwfDAuMDA=)"
         id="path742"
         transform="matrix(0.26458333,0,0,0.26458333,-3.6881005,54.087353)" />
      <path
         d="m 735.91,454.13 v 0 h 0.1 0.1 l 0.1,0.01 0.09,0.01 0.1,0.02 0.1,0.02 0.09,0.02 0.09,0.02 0.1,0.03 0.09,0.04 v 0 l 0.09,0.03 0.09,0.03 0.09,0.04 0.09,0.04 0.09,0.05 0.08,0.04 0.08,0.05 0.08,0.05 0.08,0.05 0.07,0.06 v 0 l 0.07,0.05 0.07,0.06 0.07,0.06 0.07,0.06 0.06,0.07 0.06,0.06 0.05,0.07 0.06,0.07 0.05,0.07 0.05,0.08 v 0 l 0.05,0.07 0.04,0.08 0.04,0.07 0.03,0.08 0.04,0.08 0.02,0.08 0.03,0.08 0.02,0.08 0.02,0.08 0.01,0.09 v 0 0.01 l 0.01,0.02 v 0.01 0.02 0.01 0.01 0.01 0.01 l -0.01,0.01 v 0.01 0 0 l -0.01,0.01 v 0 h -0.01 v 0.01 h -0.01 -0.01 -0.01 l -0.01,0.01 h -0.01 l -0.75,0.06 v 0 h -0.01 -0.01 -0.01 v 0 h -0.01 l -0.01,-0.01 v 0 h -0.01 l -0.01,-0.01 v 0 0 -0.01 l -0.01,-0.01 v 0 -0.01 l -0.01,-0.01 v -0.01 -0.01 l -0.01,-0.01 v 0 -0.01 0 l -0.03,-0.13 -0.04,-0.12 -0.04,-0.12 -0.05,-0.11 -0.06,-0.1 -0.07,-0.1 -0.07,-0.1 -0.07,-0.09 -0.09,-0.08 -0.09,-0.08 v 0 l -0.09,-0.08 -0.1,-0.07 -0.11,-0.06 -0.1,-0.05 -0.12,-0.04 -0.11,-0.04 -0.13,-0.03 -0.12,-0.02 -0.13,-0.01 h -0.14 v 0 h -0.2 l -0.2,0.03 -0.18,0.03 -0.17,0.06 -0.17,0.07 -0.15,0.08 -0.15,0.1 -0.14,0.12 -0.12,0.13 -0.12,0.15 v 0 l -0.11,0.16 -0.09,0.17 -0.09,0.2 -0.07,0.21 -0.06,0.22 -0.05,0.24 -0.04,0.26 -0.03,0.27 -0.01,0.28 -0.01,0.31 v 0 l 0.01,0.29 0.01,0.28 0.03,0.26 0.04,0.25 0.05,0.23 0.06,0.22 0.07,0.21 0.08,0.19 0.1,0.17 0.1,0.17 v 0 l 0.12,0.14 0.12,0.13 0.14,0.12 0.15,0.1 0.16,0.08 0.17,0.07 0.18,0.06 0.2,0.03 0.2,0.03 0.22,0.01 v 0 l 0.14,-0.01 0.13,-0.01 0.13,-0.02 0.13,-0.02 0.12,-0.03 0.12,-0.04 0.11,-0.04 0.1,-0.05 0.1,-0.06 0.1,-0.06 v 0 l 0.09,-0.08 0.09,-0.08 0.09,-0.09 0.08,-0.09 0.08,-0.11 0.08,-0.11 0.07,-0.12 0.07,-0.13 0.06,-0.14 0.06,-0.14 v 0 l 0.01,-0.02 v -0.01 h 0.01 l 0.01,-0.01 h 0.02 l 0.01,-0.01 h 0.01 0.02 0.01 l 0.02,0.01 0.59,0.14 v 0 h 0.01 v 0 h 0.01 v 0.01 h 0.01 v 0 l 0.01,0.01 v 0 l 0.01,0.01 v 0.01 0 0 l 0.01,0.01 v 0.01 0.01 0.01 0.01 0.01 0.01 l -0.01,0.01 v 0.02 0 l -0.02,0.05 -0.02,0.06 -0.02,0.06 -0.02,0.06 -0.02,0.05 -0.03,0.06 -0.03,0.06 -0.03,0.05 -0.03,0.06 -0.03,0.06 v 0 l -0.03,0.05 -0.04,0.06 -0.03,0.05 -0.04,0.05 -0.04,0.06 -0.04,0.05 -0.04,0.05 -0.05,0.05 -0.04,0.06 -0.05,0.05 v 0 l -0.05,0.04 -0.05,0.05 -0.05,0.05 -0.05,0.04 -0.06,0.05 -0.06,0.04 -0.05,0.04 -0.06,0.04 -0.07,0.05 -0.06,0.04 v 0 l -0.06,0.03 -0.07,0.04 -0.07,0.03 -0.07,0.03 -0.07,0.04 -0.07,0.02 -0.07,0.03 -0.08,0.03 -0.07,0.02 -0.08,0.03 v 0 l -0.08,0.02 -0.07,0.02 -0.08,0.01 -0.08,0.02 -0.09,0.01 -0.08,0.01 -0.09,0.01 h -0.08 -0.09 l -0.09,0.01 v 0 l -0.19,-0.01 -0.19,-0.01 -0.19,-0.03 -0.18,-0.03 -0.17,-0.04 -0.17,-0.05 -0.16,-0.06 -0.16,-0.07 -0.15,-0.08 -0.15,-0.08 v 0 l -0.14,-0.1 -0.13,-0.1 -0.13,-0.12 -0.11,-0.12 -0.12,-0.12 -0.1,-0.14 -0.1,-0.14 -0.09,-0.16 -0.09,-0.16 -0.08,-0.16 v 0 l -0.07,-0.18 -0.06,-0.18 -0.06,-0.19 -0.05,-0.19 -0.04,-0.2 -0.03,-0.21 -0.03,-0.22 -0.01,-0.22 -0.02,-0.22 v -0.23 0 -0.24 l 0.02,-0.22 0.01,-0.22 0.03,-0.22 0.03,-0.2 0.04,-0.2 0.05,-0.19 0.06,-0.19 0.06,-0.18 0.07,-0.17 v 0 l 0.08,-0.17 0.09,-0.16 0.09,-0.15 0.1,-0.15 0.1,-0.13 0.11,-0.13 0.12,-0.12 0.12,-0.11 0.13,-0.1 0.14,-0.09 v 0 l 0.15,-0.09 0.14,-0.08 0.16,-0.07 0.16,-0.06 0.17,-0.05 0.17,-0.04 0.17,-0.03 0.18,-0.03 0.19,-0.01 z"
         style="fill:#000000;fill-rule:evenodd;stroke:none;stroke-width:0.75;stroke-linecap:round;stroke-linejoin:round;stroke-miterlimit:10"
         clip-path="url(#cpMC4wMHw3NTYuMDB8NDY4LjAwfDAuMDA=)"
         id="path744"
         transform="matrix(0.26458333,0,0,0.26458333,-3.6881005,54.087353)" />
      <path
         d="m 743.02,461.01 v 0 l -0.07,0.07 -0.08,0.06 -0.08,0.07 -0.08,0.06 -0.08,0.05 -0.08,0.06 -0.08,0.05 -0.09,0.04 -0.08,0.05 -0.09,0.04 v 0 l -0.09,0.03 -0.09,0.03 -0.09,0.03 -0.09,0.03 -0.1,0.02 -0.1,0.02 -0.1,0.01 -0.1,0.01 h -0.1 l -0.11,0.01 v 0 l -0.15,-0.01 -0.15,-0.01 -0.14,-0.02 -0.13,-0.03 -0.13,-0.03 -0.12,-0.05 -0.11,-0.05 -0.11,-0.06 -0.1,-0.07 -0.09,-0.07 v 0 l -0.08,-0.09 -0.08,-0.08 -0.06,-0.1 -0.06,-0.09 -0.05,-0.11 -0.04,-0.1 -0.03,-0.12 -0.02,-0.11 -0.02,-0.13 v -0.12 0 -0.11 l 0.01,-0.1 0.02,-0.1 0.02,-0.09 0.03,-0.1 0.03,-0.09 0.04,-0.08 0.04,-0.09 0.05,-0.08 0.06,-0.07 v 0 l 0.06,-0.08 0.07,-0.07 0.08,-0.07 0.08,-0.07 0.08,-0.06 0.09,-0.06 0.1,-0.06 0.11,-0.05 0.11,-0.05 0.11,-0.04 v 0 l 0.12,-0.05 0.13,-0.04 0.13,-0.04 0.14,-0.03 0.14,-0.03 0.15,-0.03 0.15,-0.02 0.16,-0.02 0.16,-0.01 0.17,-0.01 0.78,-0.06 v 0 l 0.01,-0.01 h 0.01 0.02 l 0.01,-0.01 h 0.01 0.01 l 0.01,-0.01 h 0.01 l 0.01,-0.01 h 0.01 v 0 l 0.01,-0.01 0.01,-0.01 0.01,-0.01 v -0.01 l 0.01,-0.01 v -0.01 l 0.01,-0.01 v -0.01 -0.02 -0.01 -0.27 0 -0.11 l -0.01,-0.1 -0.02,-0.1 -0.02,-0.09 -0.03,-0.09 -0.04,-0.08 -0.05,-0.08 -0.05,-0.07 -0.05,-0.07 -0.07,-0.06 v 0 l -0.07,-0.07 -0.07,-0.05 -0.08,-0.05 -0.08,-0.04 -0.09,-0.03 -0.09,-0.03 -0.1,-0.03 -0.1,-0.01 -0.11,-0.01 h -0.11 v 0 h -0.09 -0.08 l -0.09,0.01 -0.08,0.02 -0.08,0.02 -0.08,0.02 -0.08,0.02 -0.07,0.03 -0.08,0.04 -0.07,0.04 v 0 l -0.07,0.04 -0.07,0.04 -0.06,0.05 -0.07,0.06 -0.06,0.06 -0.06,0.06 -0.07,0.06 -0.05,0.07 -0.06,0.08 -0.06,0.08 v 0 l -0.01,0.01 h -0.01 v 0.01 l -0.01,0.01 -0.01,0.01 v 0 l -0.01,0.01 -0.01,0.01 v 0 l -0.01,0.01 v 0 0 h -0.01 -0.01 v 0 h -0.01 -0.01 l -0.01,-0.01 h -0.01 -0.01 -0.01 l -0.54,-0.18 v 0 l -0.01,-0.01 v 0 l -0.01,-0.01 v 0 l -0.01,-0.01 v 0 l -0.01,-0.01 v 0 l -0.01,-0.01 v 0 0 -0.01 -0.01 -0.01 -0.01 -0.01 l 0.01,-0.01 v -0.01 l 0.01,-0.01 v -0.02 l 0.01,-0.01 v 0 l 0.06,-0.11 0.07,-0.09 0.07,-0.1 0.08,-0.09 0.08,-0.08 0.09,-0.08 0.09,-0.07 0.09,-0.08 0.1,-0.06 0.11,-0.06 v 0 l 0.11,-0.06 0.12,-0.05 0.12,-0.05 0.13,-0.04 0.13,-0.03 0.14,-0.03 0.14,-0.02 0.14,-0.01 0.15,-0.01 h 0.16 v 0 h 0.13 0.13 l 0.12,0.01 0.12,0.02 0.11,0.02 0.11,0.02 0.11,0.03 0.1,0.03 0.09,0.04 0.09,0.04 v 0 l 0.09,0.04 0.08,0.04 0.08,0.05 0.07,0.06 0.07,0.05 0.07,0.06 0.06,0.07 0.05,0.07 0.05,0.07 0.05,0.08 v 0 l 0.04,0.07 0.04,0.08 0.04,0.09 0.03,0.08 0.02,0.09 0.02,0.1 0.02,0.09 0.01,0.1 0.01,0.1 v 0.11 3.54 0 0.01 0.02 0.01 0.02 l -0.01,0.01 v 0.01 0.01 l -0.01,0.01 v 0.01 l -0.01,0.01 v 0 h -0.01 v 0.01 h -0.01 -0.01 l -0.01,0.01 h -0.01 -0.01 -0.01 l -0.02,0.01 h -0.01 -0.51 v 0 h -0.01 l -0.02,-0.01 h -0.01 -0.01 -0.01 l -0.01,-0.01 h -0.01 l -0.01,-0.01 v -0.01 h -0.01 v 0 l -0.01,-0.01 v -0.02 l -0.01,-0.01 v -0.01 -0.01 l -0.01,-0.01 v -0.01 -0.02 l -0.01,-0.01 v -0.01 l -0.01,-0.46 v 0 l -0.01,-0.03 -0.01,-0.02 -0.01,-0.02 h -0.01 l -0.01,-0.01 h -0.02 l -0.02,0.01 -0.02,0.01 -0.02,0.01 z m 0.13,-1.9 v 0 -0.04 l -0.01,-0.03 v -0.02 l -0.01,-0.02 -0.01,-0.02 -0.02,-0.01 -0.02,-0.01 -0.02,-0.01 h -0.02 -0.03 l -0.66,0.06 v 0 h -0.09 l -0.09,0.01 h -0.09 l -0.08,0.01 -0.08,0.02 -0.09,0.01 -0.07,0.01 -0.08,0.02 -0.08,0.02 -0.07,0.02 v 0 l -0.07,0.01 -0.07,0.02 -0.07,0.02 -0.06,0.03 -0.06,0.02 -0.06,0.03 -0.06,0.02 -0.06,0.03 -0.05,0.03 -0.05,0.03 v 0 l -0.05,0.03 -0.04,0.03 -0.05,0.03 -0.04,0.04 -0.04,0.03 -0.04,0.04 -0.03,0.03 -0.03,0.04 -0.03,0.04 -0.03,0.05 v 0 l -0.02,0.04 -0.03,0.04 -0.02,0.04 -0.01,0.05 -0.02,0.04 -0.01,0.05 -0.01,0.05 v 0.05 l -0.01,0.05 v 0.06 0 0.08 l 0.01,0.08 0.02,0.08 0.02,0.08 0.03,0.07 0.03,0.07 0.04,0.06 0.04,0.06 0.05,0.05 0.06,0.06 v 0 l 0.06,0.04 0.07,0.04 0.08,0.04 0.07,0.03 0.08,0.03 0.09,0.02 0.09,0.01 0.09,0.02 h 0.1 l 0.1,0.01 v 0 l 0.06,-0.01 h 0.07 0.06 l 0.06,-0.01 0.06,-0.01 0.06,-0.01 0.06,-0.02 0.06,-0.01 0.06,-0.02 0.06,-0.02 v 0 l 0.06,-0.03 0.06,-0.02 0.05,-0.03 0.06,-0.03 0.05,-0.03 0.05,-0.03 0.05,-0.03 0.05,-0.03 0.05,-0.04 0.04,-0.03 v 0 l 0.05,-0.04 0.04,-0.04 0.04,-0.04 0.04,-0.04 0.03,-0.04 0.04,-0.04 0.03,-0.04 0.03,-0.03 0.03,-0.04 0.02,-0.04 v 0 l 0.03,-0.04 0.02,-0.04 0.02,-0.04 0.01,-0.04 0.02,-0.04 0.01,-0.04 0.01,-0.04 0.01,-0.04 v -0.04 -0.03 z"
         style="fill:#000000;fill-rule:evenodd;stroke:none;stroke-width:0.75;stroke-linecap:round;stroke-linejoin:round;stroke-miterlimit:10"
         clip-path="url(#cpMC4wMHw3NTYuMDB8NDY4LjAwfDAuMDA=)"
         id="path746"
         transform="matrix(0.26458333,0,0,0.26458333,-3.6881005,54.087353)" />
      <path
         d="m 745.59,461.65 v 0 l -0.03,-0.01 h -0.02 l -0.02,-0.01 -0.02,-0.01 -0.01,-0.01 -0.02,-0.01 -0.01,-0.02 v -0.02 l -0.01,-0.02 v -0.02 -5.04 0 -0.03 -0.02 l 0.01,-0.02 0.01,-0.02 0.01,-0.01 0.01,-0.01 0.01,-0.01 0.02,-0.01 h 0.02 0.02 0.6 v 0 h 0.02 0.02 l 0.02,0.01 h 0.01 l 0.01,0.01 0.01,0.02 0.01,0.01 0.01,0.02 v 0.01 0.03 0.58 0 0.01 0 0.01 0.01 l 0.01,0.01 v 0 0.01 0 h 0.01 v 0.01 0 0 h 0.01 0.01 v 0 l 0.01,-0.01 h 0.01 v 0 l 0.01,-0.01 0.01,-0.01 h 0.01 v 0 l 0.07,-0.06 0.06,-0.05 0.06,-0.04 0.07,-0.05 0.06,-0.04 0.06,-0.05 0.06,-0.04 0.06,-0.04 0.05,-0.04 0.06,-0.03 v 0 l 0.06,-0.04 0.06,-0.04 0.06,-0.03 0.05,-0.03 0.06,-0.03 0.06,-0.03 0.06,-0.02 0.06,-0.02 0.06,-0.03 0.06,-0.01 v 0 l 0.06,-0.02 0.06,-0.02 0.06,-0.02 0.07,-0.01 0.06,-0.01 0.06,-0.01 0.07,-0.01 h 0.07 0.06 0.07 v 0 h 0.15 l 0.15,0.01 0.14,0.02 0.13,0.03 0.12,0.04 0.11,0.05 0.11,0.05 0.1,0.06 0.09,0.08 0.09,0.08 v 0 l 0.08,0.08 0.07,0.09 0.06,0.1 0.06,0.1 0.05,0.11 0.03,0.11 0.03,0.12 0.02,0.12 0.02,0.12 v 0.14 3.73 0 0.03 l -0.01,0.02 v 0.03 l -0.01,0.02 -0.02,0.02 -0.01,0.01 -0.02,0.01 -0.03,0.01 h -0.02 l -0.03,0.01 h -0.56 v 0 h -0.01 l -0.02,-0.01 h -0.01 -0.01 -0.01 l -0.01,-0.01 h -0.01 -0.01 v -0.01 H 749 v 0 l -0.01,-0.01 v -0.01 -0.01 l -0.01,-0.01 v -0.01 -0.01 l -0.01,-0.01 v -0.01 -0.01 -0.01 -3.57 0 -0.1 l -0.01,-0.09 -0.01,-0.09 -0.02,-0.08 -0.02,-0.08 -0.03,-0.07 -0.03,-0.07 -0.04,-0.07 -0.04,-0.06 -0.05,-0.05 v 0 l -0.05,-0.06 -0.06,-0.05 -0.07,-0.04 -0.07,-0.03 -0.07,-0.03 -0.08,-0.03 -0.09,-0.02 -0.1,-0.01 -0.09,-0.01 h -0.11 v 0 h -0.06 -0.05 -0.06 l -0.06,0.01 -0.05,0.01 -0.06,0.01 -0.05,0.01 -0.05,0.02 -0.06,0.02 -0.05,0.02 v 0 l -0.05,0.01 -0.05,0.03 -0.05,0.02 -0.05,0.02 -0.05,0.03 -0.05,0.03 -0.05,0.03 -0.06,0.03 -0.05,0.03 -0.05,0.04 v 0 l -0.05,0.03 -0.06,0.04 -0.05,0.04 -0.06,0.04 -0.05,0.04 -0.06,0.05 -0.06,0.04 -0.06,0.05 -0.07,0.05 -0.06,0.06 v 3.78 0 0.02 l -0.01,0.03 v 0.02 l -0.01,0.02 -0.02,0.02 -0.01,0.01 -0.02,0.01 -0.03,0.01 h -0.02 l -0.03,0.01 z"
         style="fill:#000000;fill-rule:evenodd;stroke:none;stroke-width:0.75;stroke-linecap:round;stroke-linejoin:round;stroke-miterlimit:10"
         clip-path="url(#cpMC4wMHw3NTYuMDB8NDY4LjAwfDAuMDA=)"
         id="path748"
         transform="matrix(0.26458333,0,0,0.26458333,-3.6881005,54.087353)" />
    </g>
  </g>
</svg>
